<?xml version="1.0" encoding="utf-8"?><svg viewBox="0 0 18 17" xmlns="http://www.w3.org/2000/svg" xmlns:xlink="http://www.w3.org/1999/xlink"><style>:root>svg{display:none}:root>svg:target{display:block}</style><svg viewBox="0 0 18 17" id="union" xmlns="http://www.w3.org/2000/svg"><path fill-rule="evenodd" clip-rule="evenodd" d="M16.025 12.536H4.295v-.956c3.69-.01 11.32-.024 12.312 0 .992.024 1.342-.686 1.393-1.044V4.05c0-.718-.643-.917-.965-.926l-3.552.003c-4.245.006-9.223.012-9.195-.033C4.288 1.367 4.043.59 1.616.06-.436-.39-.531 1.877 1.317 2.16c.748.116 1.003.544 1.003.993.015 2.015-.01 6.558-.046 8.735-.037 2.176 1.445 2.612 2.19 2.558h.554c-.028.113-.043.231-.043.352 0 .845.713 1.53 1.593 1.53s1.592-.685 1.592-1.53c0-.12-.014-.239-.042-.352h4.111c-.027.113-.042.231-.042.352 0 .845.713 1.53 1.593 1.53s1.592-.685 1.592-1.53c0-.12-.014-.239-.042-.352h.695c1.868 0 1.96-1.911 0-1.911zM4.265 4.978h1.531v1.911H4.265V4.978zm4.103 0H6.837v1.911h1.531V4.978zm1.042 0h1.531v1.911H9.41V4.978zm4.103 0h-1.53v1.911h1.53V4.978zm1.042 0h1.53v1.911h-1.53V4.978zM5.796 7.815H4.265v1.912h1.531V7.815zm1.041 0h1.531v1.912H6.837V7.815zm4.104 0H9.41v1.912h1.531V7.815zm1.041 0h1.531v1.912h-1.53V7.815zm4.104 0h-1.531v1.912h1.53V7.815z"/></svg></svg>